<svg width="110" height="16" viewBox="0 0 110 16" fill="none" xmlns="http://www.w3.org/2000/svg">
<path d="M0.598011 15V0.454545H2.79261V6.77557H10.044V0.454545H12.2457V15H10.044V8.65767H2.79261V15H0.598011ZM28.0767 7.72727C28.0767 9.2803 27.7926 10.6155 27.2244 11.733C26.6563 12.8456 25.8774 13.7027 24.8878 14.304C23.9029 14.9006 22.7831 15.1989 21.5284 15.1989C20.2689 15.1989 19.1444 14.9006 18.1548 14.304C17.17 13.7027 16.3935 12.8433 15.8253 11.7259C15.2571 10.6084 14.973 9.27557 14.973 7.72727C14.973 6.17424 15.2571 4.84138 15.8253 3.72869C16.3935 2.61127 17.17 1.75426 18.1548 1.15767C19.1444 0.556344 20.2689 0.255681 21.5284 0.255681C22.7831 0.255681 23.9029 0.556344 24.8878 1.15767C25.8774 1.75426 26.6563 2.61127 27.2244 3.72869C27.7926 4.84138 28.0767 6.17424 28.0767 7.72727ZM25.9034 7.72727C25.9034 6.54356 25.7116 5.54687 25.3281 4.73722C24.9493 3.92282 24.4285 3.30729 23.7656 2.89062C23.1075 2.46922 22.3617 2.25852 21.5284 2.25852C20.6903 2.25852 19.9422 2.46922 19.2841 2.89062C18.6259 3.30729 18.1051 3.92282 17.7216 4.73722C17.3428 5.54687 17.1534 6.54356 17.1534 7.72727C17.1534 8.91098 17.3428 9.91004 17.7216 10.7244C18.1051 11.5341 18.6259 12.1496 19.2841 12.571C19.9422 12.9877 20.6903 13.196 21.5284 13.196C22.3617 13.196 23.1075 12.9877 23.7656 12.571C24.4285 12.1496 24.9493 11.5341 25.3281 10.7244C25.7116 9.91004 25.9034 8.91098 25.9034 7.72727ZM29.4705 2.34375V0.454545H40.7276V2.34375H36.1893V15H34.0018V2.34375H29.4705ZM56.4414 4.27557C56.3656 3.60322 56.0531 3.08239 55.5039 2.71307C54.9547 2.33902 54.2634 2.15199 53.43 2.15199C52.8335 2.15199 52.3174 2.24669 51.8817 2.43608C51.4461 2.62074 51.1076 2.87642 50.8661 3.20312C50.6294 3.52509 50.511 3.89205 50.511 4.30398C50.511 4.64962 50.5915 4.94792 50.7525 5.19886C50.9182 5.44981 51.1336 5.66051 51.3988 5.83097C51.6687 5.99669 51.9575 6.13636 52.2653 6.25C52.573 6.3589 52.869 6.44886 53.1531 6.51989L54.5735 6.8892C55.0375 7.00284 55.5134 7.15672 56.0011 7.35085C56.4888 7.54498 56.9409 7.80066 57.3576 8.1179C57.7743 8.43513 58.1104 8.82812 58.3661 9.29688C58.6265 9.76562 58.7567 10.3267 58.7567 10.9801C58.7567 11.804 58.5437 12.5355 58.1175 13.1747C57.6961 13.8139 57.083 14.3182 56.2781 14.6875C55.4779 15.0568 54.5096 15.2415 53.3732 15.2415C52.2842 15.2415 51.342 15.0687 50.5465 14.723C49.7511 14.3774 49.1284 13.8873 48.6786 13.2528C48.2288 12.6136 47.9802 11.8561 47.9329 10.9801H50.1346C50.1772 11.5057 50.3477 11.9437 50.646 12.294C50.949 12.6397 51.3349 12.8977 51.8036 13.0682C52.2771 13.2339 52.7956 13.3168 53.359 13.3168C53.9793 13.3168 54.5309 13.2197 55.0138 13.0256C55.5015 12.8267 55.8851 12.5521 56.1644 12.2017C56.4438 11.8466 56.5835 11.4323 56.5835 10.9588C56.5835 10.5279 56.4603 10.1752 56.2141 9.90057C55.9727 9.62595 55.6436 9.39867 55.2269 9.21875C54.815 9.03883 54.3486 8.88021 53.8278 8.7429L52.109 8.27415C50.9442 7.95691 50.021 7.49053 49.3391 6.875C48.6621 6.25947 48.3235 5.44508 48.3235 4.43182C48.3235 3.59375 48.5508 2.86222 49.0053 2.23722C49.4599 1.61222 50.0754 1.12689 50.8519 0.78125C51.6284 0.430871 52.5044 0.255681 53.4798 0.255681C54.4646 0.255681 55.3335 0.428503 56.0863 0.774148C56.8439 1.11979 57.4405 1.59564 57.8761 2.2017C58.3117 2.80303 58.5389 3.49432 58.5579 4.27557H56.4414ZM60.6619 2.34375V0.454545H71.919V2.34375H67.3807V15H65.1932V2.34375H60.6619ZM83.7603 0.454545H85.962V10.0213C85.962 11.0393 85.7229 11.9413 85.2447 12.7273C84.7665 13.5085 84.0941 14.1241 83.2276 14.5739C82.3612 15.0189 81.3455 15.2415 80.1808 15.2415C79.0207 15.2415 78.0075 15.0189 77.141 14.5739C76.2745 14.1241 75.6022 13.5085 75.1239 12.7273C74.6457 11.9413 74.4066 11.0393 74.4066 10.0213V0.454545H76.6012V9.84375C76.6012 10.5019 76.7456 11.0866 77.0344 11.598C77.328 12.1094 77.7423 12.5118 78.2773 12.8054C78.8124 13.0942 79.4469 13.2386 80.1808 13.2386C80.9194 13.2386 81.5562 13.0942 82.0913 12.8054C82.631 12.5118 83.043 12.1094 83.3271 11.598C83.6159 11.0866 83.7603 10.5019 83.7603 9.84375V0.454545ZM89.1527 15V0.454545H98.1726V2.34375H91.3473V6.77557H97.5263V8.65767H91.3473V15H89.1527ZM100.871 15V0.454545H109.891V2.34375H103.066V6.77557H109.245V8.65767H103.066V15H100.871Z" fill="#F1B864"/>
</svg>
